<?xml version="1.0" standalone="no"?>
<!DOCTYPE svg PUBLIC "-//W3C//DTD SVG 20010904//EN"
 "http://www.w3.org/TR/2001/REC-SVG-20010904/DTD/svg10.dtd">
<svg version="1.0" xmlns="http://www.w3.org/2000/svg"
 width="1248.000000pt" height="1248.000000pt" viewBox="0 0 1248.000000 1248.000000"
 preserveAspectRatio="xMidYMid meet">

<g transform="translate(0.000000,1248.000000) scale(0.100000,-0.100000)"
fill="#000000" stroke="none">
<path d="M6087 11904 c-1 -1 -69 -4 -152 -8 -82 -4 -168 -9 -190 -12 -459 -51
-737 -105 -1105 -214 -1341 -398 -2506 -1304 -3237 -2515 -379 -629 -643
-1365 -748 -2085 -4 -25 -8 -56 -10 -70 -32 -206 -40 -356 -39 -770 0 -471 9
-600 70 -955 196 -1152 748 -2218 1580 -3049 846 -847 1926 -1400 3104 -1590
571 -93 1135 -97 1720 -15 1442 203 2765 974 3670 2139 641 826 1029 1780
1155 2840 35 295 41 857 11 1150 -73 737 -255 1379 -570 2010 -348 697 -813
1290 -1411 1800 -730 623 -1631 1058 -2565 1239 -304 59 -523 85 -855 101
-177 9 -418 11 -428 4z m-1462 -2128 c39 -17 41 -26 20 -86 -8 -23 -15 -44
-15 -46 0 -10 78 -2 127 12 46 13 62 14 99 4 91 -26 79 -62 -23 -73 -32 -3
-91 -17 -131 -30 -78 -25 -79 -24 -17 17 l40 27 -50 -6 c-75 -10 -189 -42
-267 -75 -83 -35 -94 -36 -108 -10 -9 17 -4 33 27 90 20 39 42 69 47 67 6 -2
15 -20 19 -41 8 -32 13 -37 31 -32 11 3 40 8 64 12 49 8 62 28 62 92 0 25 -8
44 -27 64 l-27 28 47 0 c26 0 63 -7 82 -14z m2442 -8 c10 -8 13 -23 9 -48 l-6
-36 55 0 c39 1 59 -4 72 -16 9 -10 14 -20 11 -24 -4 -3 -40 -11 -81 -16 -64
-9 -77 -14 -88 -35 -7 -14 -30 -38 -51 -55 l-38 -30 6 46 7 46 -59 0 c-66 0
-63 7 19 40 l57 22 0 46 c0 29 -6 53 -17 65 -18 20 -17 20 36 14 29 -4 60 -12
68 -19z m-1320 -7 c41 -26 47 -50 33 -127 -7 -36 -10 -68 -6 -71 3 -4 30 1 59
9 28 9 70 19 92 22 44 6 106 -12 113 -32 8 -25 -182 -91 -263 -92 -18 0 -23
-12 -38 -89 -31 -167 -81 -252 -166 -288 -44 -19 -201 -29 -226 -16 -15 9 -11
11 21 17 103 19 222 103 264 186 28 55 53 200 35 200 -3 0 -36 -22 -72 -50
-36 -27 -74 -50 -84 -50 -49 0 -61 90 -20 142 l19 23 15 -38 c18 -42 31 -45
97 -18 40 16 46 23 52 57 11 60 9 193 -2 215 -9 17 -7 19 17 19 15 0 42 -9 60
-19z m2325 -31 c28 -28 29 -34 23 -79 l-7 -49 64 5 c91 8 200 -13 232 -42 26
-24 26 -25 26 -188 0 -90 3 -204 6 -254 6 -84 5 -92 -15 -112 -16 -16 -28 -20
-44 -15 -25 8 -268 146 -264 150 2 2 23 -3 47 -10 25 -7 66 -16 91 -20 73 -11
79 1 79 147 -1 175 -13 264 -39 291 -19 18 -32 21 -95 19 -88 -3 -123 -15
-138 -48 -15 -34 -8 -38 45 -25 46 12 87 2 87 -21 0 -6 -26 -38 -58 -72 -103
-111 -102 -102 -13 -103 87 0 146 -25 146 -60 0 -17 -10 -20 -76 -25 -42 -4
-83 -10 -90 -14 -8 -4 -3 2 11 14 23 18 23 20 7 27 -35 13 -106 -3 -157 -36
-41 -26 -53 -30 -65 -20 -29 24 -18 65 26 95 43 31 143 135 135 142 -2 3 -32
-10 -65 -29 -57 -31 -61 -32 -77 -16 -19 19 -15 32 26 96 l22 32 -49 0 c-26 0
-55 4 -63 10 -16 10 -23 7 70 36 30 9 62 23 71 30 21 18 53 126 46 153 -8 31
19 26 55 -9z m-1423 -77 c18 -79 19 -83 29 -83 5 0 13 9 18 20 9 20 10 19 47
-11 21 -17 36 -36 34 -43 -2 -6 -30 -13 -63 -16 l-59 -5 -22 -85 c-24 -93 -28
-134 -13 -125 5 3 23 -1 39 -10 39 -20 38 -20 61 17 l19 32 -2 -79 c-2 -63 -5
-80 -20 -89 -16 -9 -24 -5 -51 27 -18 20 -41 37 -50 37 -20 0 -52 -68 -61
-134 -4 -26 -16 -57 -26 -69 l-19 -22 -20 24 c-26 31 -25 62 5 150 27 80 70
269 62 277 -2 2 -21 -16 -41 -41 -41 -50 -60 -56 -77 -24 -14 27 -5 74 23 119
22 35 22 35 28 10 7 -30 31 -36 63 -16 19 13 26 30 35 92 12 78 27 118 41 110
4 -3 13 -31 20 -63z m610 -69 c13 -12 12 -17 -7 -37 l-23 -24 73 1 c52 0 82
-4 106 -17 61 -33 36 -42 -99 -38 -122 3 -126 3 -164 -24 -22 -15 -62 -38 -88
-52 -27 -13 -47 -26 -45 -28 2 -2 32 3 66 13 45 12 69 13 89 6 43 -15 34 -37
-20 -52 l-49 -14 23 -24 c21 -22 22 -27 11 -75 -17 -72 -15 -95 11 -119 20
-20 29 -21 127 -15 111 6 152 -3 158 -37 2 -12 -11 -18 -63 -27 -36 -6 -93
-20 -128 -31 -56 -17 -60 -18 -39 -2 26 20 20 32 -17 32 -38 0 -106 37 -122
67 -9 18 -13 54 -12 110 1 46 -2 83 -7 83 -4 0 -39 -37 -77 -82 -37 -46 -75
-89 -83 -96 -32 -27 -92 -53 -137 -58 l-48 -7 41 30 c39 29 185 184 192 204 2
5 -7 5 -23 -1 -36 -14 -42 -13 -65 10 -26 26 -25 40 3 40 12 0 29 4 37 10 12
8 12 10 -4 16 -9 4 -21 17 -26 29 -7 19 -14 21 -62 18 -55 -5 -118 11 -102 26
5 5 41 16 81 26 67 16 73 19 83 51 12 35 40 47 40 17 1 -41 16 -47 56 -23 21
13 34 18 29 11 -6 -11 5 -12 56 -6 55 5 68 11 92 38 29 33 35 57 15 58 -7 0
-4 4 7 9 26 12 96 2 114 -16z m551 -106 c2 -117 -14 -395 -22 -405 -6 -7 -17
-13 -25 -13 -22 0 -53 79 -53 137 0 97 31 273 62 351 l10 27 14 -32 c8 -18 14
-48 14 -65z m-2911 36 c67 -27 46 -38 -80 -45 -127 -7 -207 -18 -214 -29 -2
-3 12 -14 32 -24 37 -18 38 -21 17 -95 -6 -21 -5 -22 13 -13 11 6 35 25 53 42
28 26 31 32 19 47 -13 15 -11 16 23 10 46 -7 90 -28 95 -44 5 -15 -84 -61
-162 -83 l-60 -17 -32 -98 c-46 -142 -87 -176 -205 -174 -69 1 -146 16 -97 18
44 2 113 30 151 61 46 38 87 120 94 191 l6 54 -54 -59 c-46 -50 -57 -58 -77
-51 -21 6 -23 12 -19 57 6 63 21 79 45 49 l18 -21 45 24 c38 20 45 29 48 58 5
52 -11 59 -93 42 -67 -14 -95 -32 -95 -61 0 -49 -122 -314 -162 -349 -17 -16
-19 -16 -38 1 -28 25 -25 59 10 110 28 41 143 275 138 280 -2 1 -19 11 -38 21
l-35 18 40 8 c171 33 479 85 521 87 30 1 69 -5 93 -15z m1026 -316 c55 -14
175 -75 208 -106 30 -29 35 -59 11 -69 -8 -3 -41 2 -72 11 -31 9 -70 18 -87
20 -28 3 -28 4 -7 11 12 4 22 10 22 14 0 10 -194 121 -211 121 -12 0 -12 2 1
10 15 9 70 5 135 -12z m-1092 -118 c96 -36 159 -108 111 -127 -9 -3 -40 1 -68
11 -29 9 -66 16 -82 16 l-29 1 24 13 23 13 -31 22 c-17 13 -57 36 -89 53 l-57
30 70 -5 c39 -3 96 -15 128 -27z m1334 -408 c69 -36 250 -246 289 -337 12 -28
19 -77 21 -165 2 -69 6 -131 8 -138 3 -8 24 -2 71 23 56 30 76 35 130 35 36 0
75 -5 87 -11 44 -22 99 -96 150 -199 47 -94 52 -112 52 -171 0 -56 -4 -71 -28
-102 -39 -51 -141 -108 -292 -162 -221 -79 -290 -126 -306 -207 -5 -24 -8
-101 -8 -173 1 -118 4 -140 34 -236 22 -71 37 -144 44 -218 11 -113 20 -141
73 -219 44 -64 66 -120 73 -187 14 -140 17 -162 32 -208 19 -61 43 -72 168
-81 78 -5 101 -12 172 -46 101 -49 130 -56 180 -40 52 17 75 37 130 111 26 35
79 98 118 139 50 52 86 103 118 166 53 102 79 131 124 140 25 5 37 0 67 -26
20 -18 39 -42 42 -54 10 -41 -36 -136 -118 -242 -106 -140 -128 -183 -128
-252 0 -71 23 -119 99 -204 32 -37 65 -83 71 -104 24 -73 -11 -192 -86 -294
-128 -174 -342 -220 -602 -129 -203 71 -558 274 -662 379 -69 68 -146 186
-156 239 -4 18 -14 33 -27 37 -27 9 -105 82 -123 115 -17 34 -18 83 -3 112 7
11 36 50 65 86 46 56 54 71 54 107 0 36 -8 52 -52 107 l-53 64 -85 -5 c-86 -5
-120 -14 -120 -33 0 -6 -16 -43 -35 -83 -20 -39 -38 -89 -42 -109 -5 -32 -2
-40 26 -64 36 -32 44 -89 14 -100 -31 -12 -175 16 -240 47 -83 38 -184 134
-221 209 -23 48 -27 68 -27 142 0 78 3 91 38 162 56 113 141 178 279 213 75
20 141 14 253 -20 44 -14 100 -26 125 -28 l45 -3 3 52 c2 28 -4 101 -13 163
-8 62 -15 181 -15 270 l0 160 -110 0 c-148 0 -234 19 -428 97 -163 64 -235 83
-386 101 -70 9 -82 14 -113 44 -47 47 -56 108 -22 144 13 14 40 34 59 44 19
10 62 42 95 70 99 85 121 93 265 97 69 1 239 8 378 15 l252 11 0 46 c0 51 -13
137 -30 200 -9 34 -18 45 -53 62 -163 83 -165 243 -5 383 96 84 194 104 285
58z m-2895 -92 c191 -28 309 -133 338 -303 17 -95 4 -227 -46 -482 -27 -138
-42 -351 -26 -374 12 -17 34 -10 262 85 226 94 329 124 453 131 86 5 97 4 97
-11 0 -9 7 -16 15 -16 25 0 18 -74 -12 -137 -20 -41 -82 -113 -226 -264 l-198
-208 -102 -49 c-114 -56 -223 -148 -213 -180 39 -127 66 -308 66 -442 0 -145
-20 -236 -85 -391 -68 -162 -111 -295 -189 -594 l-63 -240 -37 2 c-76 6 -142
65 -200 181 -19 37 -59 108 -90 157 -101 160 -103 195 -41 515 43 223 52 313
36 363 -7 20 -16 37 -21 37 -17 0 -40 -45 -40 -78 l0 -33 -47 6 c-72 10 -201
46 -261 72 -84 37 -151 84 -226 158 -55 54 -77 85 -111 160 -40 86 -80 135
-111 135 -7 0 -29 15 -48 34 -29 27 -36 41 -36 71 0 76 35 107 206 185 60 27
145 75 189 106 127 90 167 108 254 113 42 2 79 8 83 14 3 5 12 46 18 90 18
115 7 246 -35 417 -45 182 -55 331 -31 434 45 189 157 309 315 336 65 11 87
11 163 0z m5781 -240 c157 -11 205 -30 299 -118 87 -82 122 -133 120 -179 -1
-22 8 -52 23 -78 14 -23 25 -55 25 -72 0 -66 -114 -169 -233 -209 -93 -32
-156 -24 -294 35 -105 45 -129 60 -179 111 -70 71 -81 90 -90 155 -3 28 -21
79 -39 115 -48 95 -57 136 -41 175 19 45 71 59 266 73 8 1 73 -3 143 -8z
m-222 -806 c62 -31 155 -133 169 -186 22 -79 -2 -137 -108 -272 -74 -93 -93
-133 -70 -148 21 -15 118 0 268 42 392 108 534 76 787 -181 198 -201 242 -293
243 -506 0 -300 -100 -598 -251 -743 -65 -63 -135 -98 -304 -154 -83 -28 -181
-69 -240 -101 -55 -31 -147 -79 -205 -108 l-104 -52 -111 0 c-126 0 -336 31
-348 52 -4 7 -14 13 -21 13 -8 0 -16 7 -20 15 -7 20 -79 20 -183 0 -103 -20
-114 -19 -75 6 18 12 32 23 30 24 -2 2 -25 0 -51 -5 -57 -8 -61 -13 80 84 134
92 183 115 418 196 235 81 311 118 380 185 138 134 181 366 105 567 -30 81
-59 120 -110 146 -71 37 -157 28 -285 -31 -163 -75 -230 -82 -331 -38 -86 38
-204 172 -204 232 0 19 18 50 55 96 60 74 120 183 185 338 49 116 89 198 101
205 4 3 4 37 -1 75 -22 166 -7 244 52 270 40 17 86 11 149 -21z m-1446 -584
c94 -25 171 -64 197 -101 24 -32 37 -88 38 -160 l0 -55 -63 -23 c-35 -12 -88
-37 -119 -55 -74 -45 -106 -51 -170 -32 -95 28 -218 129 -253 207 -15 33 -16
45 -7 78 16 52 75 127 120 151 46 25 137 22 257 -10z m-2922 -245 c70 -11 123
-13 167 -8 81 9 103 7 153 -18 38 -20 39 -22 33 -62 -5 -32 -17 -51 -50 -82
-46 -43 -72 -88 -108 -182 -41 -112 -85 -160 -168 -183 -19 -5 -37 -6 -40 -2
-3 4 -52 7 -110 8 -112 0 -282 30 -377 66 -104 38 -170 151 -161 272 8 90 18
102 97 109 39 4 119 24 196 51 149 52 196 56 368 31z m225 -960 c61 -25 95
-69 88 -114 -3 -20 -12 -97 -21 -171 -8 -74 -22 -159 -31 -189 -34 -118 -132
-163 -285 -129 -32 7 -145 12 -274 13 -241 0 -285 8 -337 54 -25 22 -32 37
-36 79 -4 44 0 62 27 116 73 148 309 327 471 355 91 16 347 7 398 -14z m2538
-1066 c44 -33 82 -70 85 -82 5 -20 12 -22 70 -22 80 0 145 -26 152 -61 2 -13
-1 -28 -7 -32 -19 -14 -139 -50 -186 -57 -92 -12 -134 -60 -147 -166 -8 -67 7
-96 88 -168 38 -34 69 -67 69 -73 0 -6 23 -47 50 -93 28 -45 60 -105 70 -134
18 -47 19 -55 6 -86 -19 -44 -36 -44 -110 -5 l-57 29 -11 -24 c-6 -14 -20 -25
-30 -25 -10 0 -32 -7 -47 -15 -24 -12 -29 -23 -35 -65 -11 -85 -40 -126 -66
-95 -6 8 -17 42 -23 76 -11 59 -14 63 -52 79 -43 19 -79 68 -69 94 3 9 10 13
15 10 6 -3 28 -3 49 1 47 8 48 10 58 143 8 101 5 110 -49 131 -24 9 -31 5 -76
-42 -30 -30 -56 -69 -63 -92 -18 -58 -35 -90 -93 -177 -43 -64 -57 -79 -84
-84 -28 -5 -39 0 -93 47 -49 42 -60 57 -55 74 4 11 9 31 12 45 3 17 16 30 43
41 35 16 44 27 95 135 52 108 64 126 132 189 97 90 107 95 170 93 84 -3 71 8
-30 26 -52 10 -117 28 -145 41 -66 31 -135 95 -163 152 -26 54 -16 66 46 55
57 -10 203 -7 250 6 22 6 59 16 83 22 40 10 42 12 42 50 0 21 -5 50 -11 64 -9
20 -9 29 1 41 20 24 32 19 116 -46z m-2371 45 c8 -4 22 -19 30 -34 12 -24 22
-28 97 -38 81 -12 174 -48 198 -77 6 -8 14 -32 17 -53 4 -33 2 -42 -18 -56
-35 -24 -86 -20 -156 14 -35 16 -78 32 -96 35 l-34 7 -21 -74 c-12 -40 -24
-86 -28 -102 l-7 -29 47 5 c26 3 49 8 52 11 3 3 6 24 7 48 2 42 4 44 32 44 29
0 30 -2 33 -51 3 -51 3 -51 45 -64 51 -15 97 -46 97 -65 0 -39 -117 -128 -128
-97 -7 21 -22 13 -22 -11 0 -20 8 -25 50 -35 97 -22 115 -35 130 -87 19 -67
17 -126 -8 -240 -31 -138 -49 -183 -83 -201 -27 -14 -29 -13 -35 11 -7 27 -1
91 12 134 6 19 4 22 -12 19 -45 -8 -64 -124 -41 -253 16 -88 14 -105 -13 -105
-25 0 -47 71 -55 175 -10 135 -13 145 -44 145 -40 0 -71 -11 -71 -24 0 -7 16
-26 36 -44 41 -36 37 -53 -22 -98 l-35 -27 -16 22 c-8 13 -40 38 -69 57 -31
20 -54 42 -54 52 0 28 32 264 41 303 20 80 94 148 181 164 31 6 37 11 43 41 8
45 1 54 -41 54 -47 0 -90 -24 -109 -59 -15 -30 -58 -51 -105 -51 -65 0 -34
103 50 171 34 27 39 36 35 63 -10 63 -25 171 -25 179 0 12 -48 8 -85 -7 -31
-13 -35 -19 -35 -53 0 -21 11 -69 25 -108 30 -85 31 -106 5 -136 l-20 -24 -44
47 c-28 31 -46 61 -51 85 -9 50 -31 90 -55 103 -26 14 -62 -5 -130 -65 -28
-25 -54 -45 -57 -45 -4 0 -14 7 -22 15 -9 8 -33 15 -54 17 -26 1 -42 9 -52 25
-14 21 -14 27 4 61 23 44 92 86 206 122 91 30 98 36 85 80 -6 19 -10 42 -10
52 0 49 114 19 125 -33 4 -16 10 -31 14 -34 5 -2 48 5 97 18 79 19 89 25 89
44 0 26 29 63 49 63 8 0 22 -3 31 -6z m3495 -33 c57 -34 80 -56 80 -77 0 -7
-23 -38 -51 -68 l-51 -56 43 -2 c24 -1 63 -2 85 -3 24 -1 74 -17 118 -38 66
-31 76 -39 76 -62 0 -28 -48 -80 -88 -96 -13 -5 -54 -9 -92 -9 -38 0 -71 -4
-74 -9 -3 -5 9 -32 28 -60 19 -28 40 -66 47 -85 12 -33 12 -33 78 -33 36 0 81
-4 99 -8 l34 -7 -29 -30 c-38 -41 -103 -70 -140 -62 -30 6 -30 5 -36 -43 -5
-51 2 -63 39 -63 11 0 43 -11 71 -25 l50 -25 7 -64 c5 -56 3 -69 -16 -103 -12
-21 -26 -39 -30 -41 -4 -2 -22 -16 -41 -31 -54 -43 -177 -101 -227 -107 -43
-5 -46 -4 -67 28 -25 39 -34 88 -38 211 -3 79 0 98 18 135 17 32 28 42 47 42
54 0 69 10 72 49 5 56 -8 137 -38 239 l-27 92 -63 0 c-35 0 -66 -5 -70 -11 -3
-6 -17 -8 -30 -5 -14 4 -24 2 -24 -4 0 -6 -11 -15 -24 -19 -19 -8 -28 -27 -54
-123 -17 -62 -33 -129 -37 -148 -28 -150 -70 -224 -202 -354 -61 -61 -130
-126 -152 -144 l-41 -33 0 129 0 129 33 42 c142 186 161 236 226 604 17 92 27
175 24 184 -7 18 -3 18 112 -16 38 -12 85 -21 104 -21 32 0 33 1 18 18 -8 9
-20 37 -26 62 -10 38 -8 53 7 95 17 48 19 50 62 55 89 11 133 5 190 -29z
m-2671 9 c22 -10 67 -46 101 -79 l63 -59 -6 -52 c-5 -38 -3 -50 6 -48 7 2 67
21 134 43 120 38 123 40 129 72 3 18 3 44 0 58 -5 20 -3 25 13 25 13 0 43 -28
81 -72 33 -40 64 -77 68 -81 4 -5 28 -27 55 -51 36 -33 47 -50 47 -73 0 -65
-64 -103 -121 -72 -16 8 -25 7 -38 -5 -35 -32 -53 -137 -28 -168 6 -8 33 -26
60 -39 57 -27 73 -44 81 -85 6 -27 3 -35 -24 -57 -27 -23 -37 -26 -75 -20 -43
6 -45 5 -45 -21 0 -49 32 -211 43 -218 16 -10 241 -68 263 -68 26 0 110 -53
123 -79 31 -58 -9 -78 -112 -57 -74 16 -93 14 -238 -25 -20 -5 -48 -9 -62 -9
-31 0 -177 51 -274 95 -61 28 -74 39 -88 72 -21 48 -41 160 -31 170 4 4 28 -4
54 -19 26 -14 79 -33 118 -42 39 -8 78 -18 86 -21 9 -4 21 9 34 37 18 38 19
50 9 103 -7 36 -16 59 -23 58 -7 -2 -17 -4 -23 -5 -6 -2 -35 28 -65 67 -40 52
-54 78 -54 102 0 36 2 37 73 33 69 -3 77 7 77 106 0 46 -3 84 -7 84 -5 0 -42
-19 -83 -41 -145 -79 -128 -74 -156 -48 -13 12 -26 20 -29 17 -3 -2 -6 -29 -7
-59 -1 -30 -7 -61 -14 -69 -6 -8 -26 -49 -43 -90 -18 -41 -43 -89 -56 -106
-29 -38 -77 -65 -96 -54 -7 5 -24 4 -38 -1 -57 -22 -91 10 -117 112 -19 74
-16 87 46 214 29 58 58 135 69 185 11 47 27 117 37 155 20 82 20 84 10 153 -7
49 -7 52 13 52 12 0 39 -9 60 -20z m-343 -353 c1 -1 20 -32 42 -69 49 -80 44
-92 -41 -110 -49 -10 -60 -10 -67 2 -5 8 -4 22 2 34 6 10 8 44 6 75 -7 74 -2
84 31 76 14 -4 27 -7 27 -8z m-913 -146 c70 -43 79 -109 20 -132 -29 -11 -97
-5 -121 10 -20 12 -42 127 -28 141 17 17 88 7 129 -19z m-103 -288 c26 -21 53
-51 59 -68 11 -28 9 -32 -19 -57 -38 -35 -105 -40 -115 -9 -3 11 -14 22 -24
26 -13 4 -17 17 -18 56 -1 46 2 52 31 70 17 10 33 19 34 19 2 0 25 -17 52 -37z
m248 -48 c-4 -32 -1 -36 28 -45 46 -15 49 -43 9 -85 -18 -19 -39 -35 -47 -35
-40 0 -90 -94 -92 -173 -2 -44 -7 -62 -23 -79 l-21 -21 -29 21 c-88 63 -94
100 -31 197 25 39 57 93 71 120 31 61 97 135 122 135 14 0 16 -7 13 -35z m847
-1302 l60 -19 3 -87 c2 -58 -1 -87 -8 -87 -6 0 -28 11 -48 25 -47 32 -151 65
-206 65 -94 0 -156 -40 -142 -93 7 -30 34 -42 161 -72 124 -29 159 -43 203
-80 46 -39 64 -79 64 -144 0 -101 -48 -170 -152 -220 -49 -23 -69 -26 -180
-28 -121 -2 -195 8 -272 39 -28 10 -28 12 -28 99 0 51 4 89 10 89 5 0 30 -13
56 -30 69 -43 139 -64 219 -65 119 0 181 46 137 104 -20 27 -48 37 -187 70
-145 34 -216 92 -231 187 -17 117 47 209 179 256 69 25 272 20 362 -9z m2225
-5 l65 -25 3 -91 c1 -51 -1 -92 -5 -92 -5 0 -32 16 -61 36 -72 48 -122 64
-202 64 -157 0 -247 -119 -225 -296 15 -120 106 -197 234 -198 l66 -1 3 73 3
72 -76 0 -75 0 0 70 0 70 170 0 170 0 0 -184 0 -184 -32 -11 c-119 -38 -288
-52 -381 -31 -151 33 -247 133 -277 288 -26 129 8 264 87 352 50 55 79 74 163
102 84 28 281 20 370 -14z m-1795 -118 c42 -77 80 -140 83 -140 4 0 40 63 81
140 l75 140 107 0 107 0 -139 -230 -139 -231 0 -144 0 -145 -95 0 -95 0 0 139
0 139 -121 203 c-67 112 -130 219 -141 237 l-20 32 110 0 110 0 77 -140z
m1133 68 l-3 -73 -117 -3 -118 -3 0 -299 0 -300 -95 0 -95 0 0 300 0 300 -115
0 -115 0 0 75 0 75 330 0 331 0 -3 -72z"/>
<path d="M5803 9539 c-18 -5 -33 -14 -33 -19 0 -17 37 -11 61 10 26 21 21 23
-28 9z"/>
<path d="M6983 9448 c-37 -8 -43 -13 -57 -53 -8 -26 -11 -45 -5 -45 20 0 117
70 132 96 9 16 -6 17 -70 2z"/>
<path d="M7204 3859 c-11 -18 -15 -67 -6 -72 4 -3 27 -8 51 -12 l43 -7 -18 32
c-29 48 -60 74 -70 59z"/>
<path d="M5000 3985 c-6 -8 -10 -22 -8 -32 3 -14 12 -17 38 -15 41 3 47 8 34
29 -15 25 -50 34 -64 18z"/>
<path d="M4882 3978 c-28 -28 -8 -60 31 -50 24 6 24 62 -1 62 -10 0 -23 -5
-30 -12z"/>
<path d="M5024 3844 c-8 -30 6 -47 32 -42 13 2 20 13 22 36 3 28 0 32 -22 32
-19 0 -27 -7 -32 -26z"/>
<path d="M4868 3827 c-48 -13 -54 -47 -9 -47 46 0 83 17 79 37 -4 22 -21 24
-70 10z"/>
<path d="M8362 3778 c-24 -24 -11 -98 23 -131 36 -36 97 41 76 96 -15 39 -74
60 -99 35z"/>
</g>
</svg>
