<svg id="レイヤー_1" data-name="レイヤー 1" xmlns="http://www.w3.org/2000/svg" viewBox="0 0 600 600"><defs><style>.cls-1,.cls-3{fill:none;stroke-miterlimit:10;}.cls-1{stroke:#29abe2;stroke-width:13px;}.cls-2{fill:#2e3192;}.cls-3{stroke:#0071bc;stroke-width:12px;}</style></defs><title>アートボード 1</title><polygon class="cls-1" points="415.47 100 184.53 100 69.06 300 184.53 500 415.47 500 530.94 300 415.47 100"/><rect class="cls-2" x="153" y="70" width="60" height="60" rx="29.99997" ry="29.99997"/><rect class="cls-2" x="386" y="470" width="60" height="60" rx="29.99997" ry="29.99997"/><rect class="cls-2" x="153" y="470" width="60" height="60" rx="29.99997" ry="29.99997"/><rect class="cls-2" x="39" y="270" width="60" height="60" rx="29.99997" ry="29.99997"/><rect class="cls-2" x="501" y="270" width="60" height="60" rx="29.99997" ry="29.99997"/><rect class="cls-2" x="386" y="70" width="60" height="60" rx="29.99997" ry="29.99997"/><rect class="cls-3" x="150" y="220" width="300" height="160"/><polyline class="cls-3" points="223 220 203 251.998 223 283.997 203 315.995 223 347.997 203 380"/></svg>