<?xml version="1.0" encoding="UTF-8" standalone="no"?>
<svg
   xmlns:dc="http://purl.org/dc/elements/1.1/"
   xmlns:cc="http://creativecommons.org/ns#"
   xmlns:rdf="http://www.w3.org/1999/02/22-rdf-syntax-ns#"
   xmlns:svg="http://www.w3.org/2000/svg"
   xmlns="http://www.w3.org/2000/svg"
   viewBox="0 0 1462.475 1462.475"
   height="1462.475"
   width="1462.475"
   xml:space="preserve"
   version="1.1"
   id="svg2"><metadata
     id="metadata8"><rdf:RDF><cc:Work
         rdf:about=""><dc:format>image/svg+xml</dc:format><dc:type
           rdf:resource="http://purl.org/dc/dcmitype/StillImage" /></cc:Work></rdf:RDF></metadata><defs
     id="defs6"><clipPath
       id="clipPath18"
       clipPathUnits="userSpaceOnUse"><path
         id="path20"
         d="M 9772.8,1946.08 5856.32,318.5 1936.07,1937 308.48,5853.48 1926.98,9773.73 5843.47,11401.3 9763.72,9782.82 11391.3,5866.33 9772.8,1946.08 Z" /></clipPath><linearGradient
       id="linearGradient22"
       spreadMethod="pad"
       gradientTransform="matrix(11082.8,0,0,-11082.8,308.482,5859.91)"
       gradientUnits="userSpaceOnUse"
       y2="0"
       x2="1"
       y1="0"
       x1="0"><stop
         id="stop24"
         offset="0"
         style="stop-opacity:1;stop-color:#201912" /><stop
         id="stop26"
         offset="0.02"
         style="stop-opacity:1;stop-color:#201912" /><stop
         id="stop28"
         offset="0.1"
         style="stop-opacity:1;stop-color:#42331e" /><stop
         id="stop30"
         offset="0.23"
         style="stop-opacity:1;stop-color:#a67e59" /><stop
         id="stop32"
         offset="0.35"
         style="stop-opacity:1;stop-color:#f1b575" /><stop
         id="stop34"
         offset="0.43"
         style="stop-opacity:1;stop-color:#eecb8e" /><stop
         id="stop36"
         offset="0.481013"
         style="stop-opacity:1;stop-color:#f8d19f" /><stop
         id="stop38"
         offset="0.5"
         style="stop-opacity:1;stop-color:#f8d19f" /><stop
         id="stop40"
         offset="0.52"
         style="stop-opacity:1;stop-color:#f8d19f" /><stop
         id="stop42"
         offset="0.57"
         style="stop-opacity:1;stop-color:#eecb8e" /><stop
         id="stop44"
         offset="0.65"
         style="stop-opacity:1;stop-color:#f1b575" /><stop
         id="stop46"
         offset="0.77"
         style="stop-opacity:1;stop-color:#a67e59" /><stop
         id="stop48"
         offset="0.9"
         style="stop-opacity:1;stop-color:#42331e" /><stop
         id="stop50"
         offset="0.98"
         style="stop-opacity:1;stop-color:#191511" /><stop
         id="stop52"
         offset="1"
         style="stop-opacity:1;stop-color:#191511" /></linearGradient><clipPath
       id="clipPath60"
       clipPathUnits="userSpaceOnUse"><path
         id="path62"
         d="M 0,11699.8 0,0 l 11699.8,0 0,11699.8 -11699.8,0 z" /></clipPath><clipPath
       id="clipPath128"
       clipPathUnits="userSpaceOnUse"><path
         id="path130"
         d="m 11121.2,4535.6 -10519.485,0 0,2620.15 10519.485,0 0,-2620.15 z" /></clipPath><linearGradient
       id="linearGradient132"
       spreadMethod="pad"
       gradientTransform="matrix(10519.4,0,0,-10519.4,601.715,5845.67)"
       gradientUnits="userSpaceOnUse"
       y2="0"
       x2="1"
       y1="0"
       x1="0"><stop
         id="stop134"
         offset="0"
         style="stop-opacity:1;stop-color:#201912" /><stop
         id="stop136"
         offset="0.02"
         style="stop-opacity:1;stop-color:#201912" /><stop
         id="stop138"
         offset="0.1"
         style="stop-opacity:1;stop-color:#42331e" /><stop
         id="stop140"
         offset="0.23"
         style="stop-opacity:1;stop-color:#a67e59" /><stop
         id="stop142"
         offset="0.35"
         style="stop-opacity:1;stop-color:#f1b575" /><stop
         id="stop144"
         offset="0.43"
         style="stop-opacity:1;stop-color:#eecb8e" /><stop
         id="stop146"
         offset="0.481013"
         style="stop-opacity:1;stop-color:#f8d19f" /><stop
         id="stop148"
         offset="0.5"
         style="stop-opacity:1;stop-color:#f8d19f" /><stop
         id="stop150"
         offset="0.52"
         style="stop-opacity:1;stop-color:#f8d19f" /><stop
         id="stop152"
         offset="0.57"
         style="stop-opacity:1;stop-color:#eecb8e" /><stop
         id="stop154"
         offset="0.65"
         style="stop-opacity:1;stop-color:#f1b575" /><stop
         id="stop156"
         offset="0.77"
         style="stop-opacity:1;stop-color:#a67e59" /><stop
         id="stop158"
         offset="0.9"
         style="stop-opacity:1;stop-color:#42331e" /><stop
         id="stop160"
         offset="0.98"
         style="stop-opacity:1;stop-color:#191511" /><stop
         id="stop162"
         offset="1"
         style="stop-opacity:1;stop-color:#191511" /></linearGradient><clipPath
       id="clipPath170"
       clipPathUnits="userSpaceOnUse"><path
         id="path172"
         d="M 0,11699.8 0,0 l 11699.8,0 0,11699.8 -11699.8,0 z" /></clipPath></defs><g
     transform="matrix(1.25,0,0,-1.25,0,1462.475)"
     id="g10"><g
       transform="scale(0.1,0.1)"
       id="g12"><g
         id="g14"><g
           clip-path="url(#clipPath18)"
           id="g16"><path
             id="path54"
             style="fill:url(#linearGradient22);fill-opacity:1;fill-rule:nonzero;stroke:none"
             d="M 9772.8,1946.08 5856.32,318.5 1936.07,1937 308.48,5853.48 1926.98,9773.73 5843.47,11401.3 9763.72,9782.82 11391.3,5866.33 9772.8,1946.08" /></g></g><g
         id="g56"><g
           clip-path="url(#clipPath60)"
           id="g58"><path
             id="path64"
             style="fill:#eb8921;fill-opacity:1;fill-rule:nonzero;stroke:none"
             d="m 6479.93,862.699 -639.06,-261.5 -636.84,266.903 -261.56,638.998 266.92,636.88 639.06,261.56 636.84,-266.92 261.57,-639.02 -266.93,-636.901" /><path
             id="path66"
             style="fill:none;stroke:#231f20;stroke-width:60;stroke-linecap:butt;stroke-linejoin:miter;stroke-miterlimit:10;stroke-dasharray:none;stroke-opacity:1"
             d="m 6479.93,862.699 -639.06,-261.5 -636.84,266.903 -261.56,638.998 266.92,636.88 639.06,261.56 636.84,-266.92 261.57,-639.02 -266.93,-636.901 z" /><path
             id="path68"
             style="fill:#47bda2;fill-opacity:1;fill-rule:nonzero;stroke:none"
             d="m 3395.99,2155.35 -639.06,-261.58 -636.83,266.94 -261.57,639.05 266.93,636.84 639.06,261.56 636.83,-266.92 261.56,-639.06 -266.92,-636.83" /><path
             id="path70"
             style="fill:none;stroke:#231f20;stroke-width:60;stroke-linecap:butt;stroke-linejoin:miter;stroke-miterlimit:10;stroke-dasharray:none;stroke-opacity:1"
             d="m 3395.99,2155.35 -639.06,-261.58 -636.83,266.94 -261.57,639.05 266.93,636.84 639.06,261.56 636.83,-266.92 261.56,-639.06 -266.92,-636.83 z" /><path
             id="path72"
             style="fill:#62a2d9;fill-opacity:1;fill-rule:nonzero;stroke:none"
             d="m 4951.12,2781.66 261.57,-639.07 -266.93,-636.79 -639.06,-261.6 -636.83,266.9 -261.56,639.08 266.92,636.84 639.06,261.56 636.83,-266.92" /><path
             id="path74"
             style="fill:none;stroke:#231f20;stroke-width:60;stroke-linecap:butt;stroke-linejoin:miter;stroke-miterlimit:10;stroke-dasharray:none;stroke-opacity:1"
             d="m 4951.12,2781.66 261.57,-639.07 -266.93,-636.79 -639.06,-261.6 -636.83,266.9 -261.56,639.08 266.92,636.84 639.06,261.56 636.83,-266.92 z" /><path
             id="path76"
             style="fill:#eb8921;fill-opacity:1;fill-rule:nonzero;stroke:none"
             d="m 8673.09,1770.02 -639.07,-261.52 -636.83,266.89 -261.56,639.05 266.93,636.83 639.05,261.58 636.84,-266.94 261.56,-639.05 -266.92,-636.84" /><path
             id="path78"
             style="fill:none;stroke:#231f20;stroke-width:60;stroke-linecap:butt;stroke-linejoin:miter;stroke-miterlimit:10;stroke-dasharray:none;stroke-opacity:1"
             d="m 8673.09,1770.02 -639.07,-261.52 -636.83,266.89 -261.56,639.05 266.93,636.83 639.05,261.58 636.84,-266.94 261.56,-639.05 -266.92,-636.84 z" /><path
             id="path80"
             style="fill:#47bda2;fill-opacity:1;fill-rule:nonzero;stroke:none"
             d="m 5589.15,3062.64 -639.06,-261.56 -636.84,266.92 -261.56,639.06 266.92,636.83 639.06,261.57 636.84,-266.93 261.56,-639.05 -266.92,-636.84" /><path
             id="path82"
             style="fill:none;stroke:#231f20;stroke-width:60;stroke-linecap:butt;stroke-linejoin:miter;stroke-miterlimit:10;stroke-dasharray:none;stroke-opacity:1"
             d="m 5589.15,3062.64 -639.06,-261.56 -636.84,266.92 -261.56,639.06 266.92,636.83 639.06,261.57 636.84,-266.93 261.56,-639.05 -266.92,-636.84 z" /><path
             id="path84"
             style="fill:#62a2d9;fill-opacity:1;fill-rule:nonzero;stroke:none"
             d="m 7144.29,3688.95 261.56,-639.05 -266.93,-636.84 -639.06,-261.56 -636.83,266.92 -261.57,639.06 266.93,636.83 639.06,261.57 636.84,-266.93" /><path
             id="path86"
             style="fill:none;stroke:#231f20;stroke-width:60;stroke-linecap:butt;stroke-linejoin:miter;stroke-miterlimit:10;stroke-dasharray:none;stroke-opacity:1"
             d="m 7144.29,3688.95 261.56,-639.05 -266.93,-636.84 -639.06,-261.56 -636.83,266.92 -261.57,639.06 266.93,636.83 639.06,261.57 636.84,-266.93 z" /><path
             id="path88"
             style="fill:#47bda2;fill-opacity:1;fill-rule:nonzero;stroke:none"
             d="m 9320.74,3315.22 -639.05,-261.56 -636.84,266.92 -261.56,639.05 266.92,636.84 639.07,261.57 636.83,-266.93 261.57,-639.05 -266.94,-636.84" /><path
             id="path90"
             style="fill:none;stroke:#231f20;stroke-width:60;stroke-linecap:butt;stroke-linejoin:miter;stroke-miterlimit:10;stroke-dasharray:none;stroke-opacity:1"
             d="m 9320.74,3315.22 -639.05,-261.56 -636.84,266.92 -261.56,639.05 266.92,636.84 639.07,261.57 636.83,-266.93 261.57,-639.05 -266.94,-636.84 z" /><path
             id="path92"
             style="fill:#eb8921;fill-opacity:1;fill-rule:nonzero;stroke:none"
             d="m 4446.41,9002.18 -639.06,-261.56 -636.84,266.92 -261.56,639.06 266.92,636.8 639.06,261.6 636.84,-266.9 261.56,-639.08 -266.92,-636.84" /><path
             id="path94"
             style="fill:none;stroke:#231f20;stroke-width:60;stroke-linecap:butt;stroke-linejoin:miter;stroke-miterlimit:10;stroke-dasharray:none;stroke-opacity:1"
             d="m 4446.41,9002.18 -639.06,-261.56 -636.84,266.92 -261.56,639.06 266.92,636.8 639.06,261.6 636.84,-266.9 261.56,-639.08 -266.92,-636.84 z" /><path
             id="path96"
             style="fill:#47bda2;fill-opacity:1;fill-rule:nonzero;stroke:none"
             d="m 3784.76,7452.26 -639.06,-261.56 -636.83,266.92 -261.57,639.06 266.93,636.84 639.06,261.56 636.83,-266.93 261.57,-639.05 -266.93,-636.84" /><path
             id="path98"
             style="fill:none;stroke:#231f20;stroke-width:60;stroke-linecap:butt;stroke-linejoin:miter;stroke-miterlimit:10;stroke-dasharray:none;stroke-opacity:1"
             d="m 3784.76,7452.26 -639.06,-261.56 -636.83,266.92 -261.57,639.06 266.93,636.84 639.06,261.56 636.83,-266.93 261.57,-639.05 -266.93,-636.84 z" /><path
             id="path100"
             style="fill:#eb8921;fill-opacity:1;fill-rule:nonzero;stroke:none"
             d="m 9085.89,7058.15 -639.05,-261.57 -636.84,266.93 -261.56,639.06 266.92,636.83 639.05,261.57 636.84,-266.93 261.57,-639.05 -266.93,-636.84" /><path
             id="path102"
             style="fill:none;stroke:#231f20;stroke-width:60;stroke-linecap:butt;stroke-linejoin:miter;stroke-miterlimit:10;stroke-dasharray:none;stroke-opacity:1"
             d="m 9085.89,7058.15 -639.05,-261.57 -636.84,266.93 -261.56,639.06 266.92,636.83 639.05,261.57 636.84,-266.93 261.57,-639.05 -266.93,-636.84 z" /><path
             id="path104"
             style="fill:#62a2d9;fill-opacity:1;fill-rule:nonzero;stroke:none"
             d="m 7557.09,8977.08 261.56,-639.06 -266.92,-636.83 -639.05,-261.57 -636.84,266.93 -261.57,639.06 266.93,636.83 639.05,261.56 636.84,-266.92" /><path
             id="path106"
             style="fill:none;stroke:#231f20;stroke-width:60;stroke-linecap:butt;stroke-linejoin:miter;stroke-miterlimit:10;stroke-dasharray:none;stroke-opacity:1"
             d="m 7557.09,8977.08 261.56,-639.06 -266.92,-636.83 -639.05,-261.57 -636.84,266.93 -261.57,639.06 266.93,636.83 639.05,261.56 636.84,-266.92 z" /><path
             id="path108"
             style="fill:#eb8921;fill-opacity:1;fill-rule:nonzero;stroke:none"
             d="m 6653.14,9904.38 -639.06,-261.57 -636.83,266.93 -261.57,639.06 266.93,636.8 639.06,261.6 636.84,-266.9 261.56,-639.1 -266.93,-636.82" /><path
             id="path110"
             style="fill:none;stroke:#231f20;stroke-width:60;stroke-linecap:butt;stroke-linejoin:miter;stroke-miterlimit:10;stroke-dasharray:none;stroke-opacity:1"
             d="m 6653.14,9904.38 -639.06,-261.57 -636.83,266.93 -261.57,639.06 266.93,636.8 639.06,261.6 636.84,-266.9 261.56,-639.1 -266.93,-636.82 z" /><path
             id="path112"
             style="fill:#47bda2;fill-opacity:1;fill-rule:nonzero;stroke:none"
             d="m 8195.11,9258.07 -639.06,-261.57 -636.83,266.93 -261.56,639.06 266.92,636.81 639.05,261.6 636.84,-266.9 261.57,-639.1 -266.93,-636.83" /><path
             id="path114"
             style="fill:none;stroke:#231f20;stroke-width:60;stroke-linecap:butt;stroke-linejoin:miter;stroke-miterlimit:10;stroke-dasharray:none;stroke-opacity:1"
             d="m 8195.11,9258.07 -639.06,-261.57 -636.83,266.93 -261.56,639.06 266.92,636.81 639.05,261.6 636.84,-266.9 261.57,-639.1 -266.93,-636.83 z" /><path
             id="path116"
             style="fill:#47bda2;fill-opacity:1;fill-rule:nonzero;stroke:none"
             d="m 6001.75,8350.27 -639.06,-261.57 -636.84,266.93 -261.56,639.06 266.93,636.83 639.05,261.57 636.84,-266.93 261.56,-639.06 -266.92,-636.83" /><path
             id="path118"
             style="fill:none;stroke:#231f20;stroke-width:60;stroke-linecap:butt;stroke-linejoin:miter;stroke-miterlimit:10;stroke-dasharray:none;stroke-opacity:1"
             d="m 6001.75,8350.27 -639.06,-261.57 -636.84,266.93 -261.56,639.06 266.93,636.83 639.05,261.57 636.84,-266.93 261.56,-639.06 -266.92,-636.83 z" /><path
             id="path120"
             style="fill:#62a2d9;fill-opacity:1;fill-rule:nonzero;stroke:none"
             d="m 9750.24,9884.38 261.56,-639.06 -266.92,-636.84 -639.05,-261.56 -636.84,266.93 -261.56,639.05 266.93,636.84 639.05,261.56 636.83,-266.92" /><path
             id="path122"
             style="fill:none;stroke:#231f20;stroke-width:60;stroke-linecap:butt;stroke-linejoin:miter;stroke-miterlimit:10;stroke-dasharray:none;stroke-opacity:1"
             d="m 9750.24,9884.38 261.56,-639.06 -266.92,-636.84 -639.05,-261.56 -636.84,266.93 -261.56,639.05 266.93,636.84 639.05,261.56 636.83,-266.92 z" /></g></g><g
         id="g124"><g
           clip-path="url(#clipPath128)"
           id="g126"><path
             id="path164"
             style="fill:url(#linearGradient132);fill-opacity:1;fill-rule:nonzero;stroke:none"
             d="m 601.715,4535.6 10519.5,0 0,2620.15 -10519.5,0 0,-2620.15 z" /></g></g><g
         id="g166"><g
           clip-path="url(#clipPath170)"
           id="g168"><path
             id="path174"
             style="fill:none;stroke:#231f20;stroke-width:20;stroke-linecap:butt;stroke-linejoin:miter;stroke-miterlimit:10;stroke-dasharray:none;stroke-opacity:1"
             d="m 601.715,4535.6 10519.5,0 0,2620.15 -10519.5,0 0,-2620.15 z" /><path
             id="path176"
             style="fill:none;stroke:#231f20;stroke-width:570;stroke-linecap:butt;stroke-linejoin:miter;stroke-miterlimit:10;stroke-dasharray:none;stroke-opacity:1"
             d="M 9772.8,1936.08 5856.32,308.5 1936.07,1927 308.48,5843.48 1926.98,9763.73 5843.47,11391.3 9763.72,9772.82 11391.3,5856.33 9772.8,1936.08 Z" /><path
             id="path178"
             style="fill:#ffffff;fill-opacity:1;fill-rule:nonzero;stroke:none"
             d="m 1690.22,6925.23 0,-1687.75 1009.18,0 0,-382.8 -1464.46,0 0,2070.55 455.28,0" /><path
             id="path180"
             style="fill:#ffffff;fill-opacity:1;fill-rule:nonzero;stroke:none"
             d="m 4073.93,6372.79 c -27.1,43.5 -60.9,81.65 -101.5,114.55 -40.6,32.85 -86.54,58.45 -137.74,76.85 -51.25,18.35 -104.9,27.55 -160.95,27.55 -102.5,0 -189.49,-19.85 -261,-59.45 -71.54,-39.65 -129.54,-92.8 -173.99,-159.5 -44.5,-66.7 -76.85,-142.59 -97.15,-227.64 -20.3,-85.1 -30.45,-173.04 -30.45,-263.89 0,-87 10.15,-171.6 30.45,-253.74 20.3,-82.2 52.65,-156.15 97.15,-221.85 44.45,-65.75 102.45,-118.45 173.99,-158.05 71.51,-39.65 158.5,-59.44 261,-59.44 139.19,0 247.94,42.5 326.24,127.59 78.3,85.05 126.15,197.19 143.55,336.39 l 440.79,0 c -11.61,-129.55 -41.6,-246.49 -89.9,-350.88 -48.35,-104.41 -112.15,-193.35 -191.4,-266.8 -79.29,-73.5 -172.09,-129.54 -278.39,-168.2 -106.34,-38.65 -223.29,-57.99 -350.89,-57.99 -158.54,0 -301.14,27.55 -427.74,82.64 -126.64,55.1 -233.44,130.95 -320.44,227.65 -87,96.65 -153.7,210.24 -200.1,340.74 -46.39,130.49 -69.6,271.14 -69.6,421.94 0,154.64 23.21,298.19 69.6,430.64 46.4,132.39 113.1,247.94 200.1,346.54 87,98.59 193.8,175.9 320.44,231.99 126.6,56.05 269.2,84.1 427.74,84.1 114.05,0 221.85,-16.45 323.34,-49.3 101.5,-32.9 192.35,-80.75 272.59,-143.54 80.2,-62.86 146.45,-140.65 198.65,-233.45 52.2,-92.8 85.05,-199.14 98.59,-318.99 l -440.78,0 c -7.75,52.2 -25.15,100.04 -52.2,143.54" /><path
             id="path182"
             style="fill:#ffffff;fill-opacity:1;fill-rule:nonzero;stroke:none"
             d="m 5138.2,6925.23 864.17,-1389.06 5.8,0 0,1389.06 426.29,0 0,-2070.55 -455.29,0 -861.27,1386.17 -5.81,0 0,-1386.17 -426.28,0 0,2070.55 452.39,0" /><path
             id="path184"
             style="fill:#ffffff;fill-opacity:1;fill-rule:nonzero;stroke:none"
             d="m 8891.01,6925.23 484.28,-1423.87 5.8,0 458.2,1423.87 640.91,0 0,-2070.55 -426.3,0 0,1467.37 -5.8,0 -507.51,-1467.37 -350.89,0 -507.48,1452.86 -5.8,0 0,-1452.86 -426.29,0 0,2070.55 640.88,0" /><path
             id="path186"
             style="fill:#ffffff;fill-opacity:1;fill-rule:nonzero;stroke:none"
             d="m 8113.84,6925.23 0,-382.79 -1093.27,0 0,-443.69 1003.37,0 0,-353.79 -1003.37,0 0,-507.48 1116.47,0 0,-382.8 -1571.76,0 0,2070.55 1548.56,0" /><path
             id="path188"
             style="fill:#ffffff;fill-opacity:1;fill-rule:nonzero;stroke:none"
             d="m 1690.22,6925.23 0,-1687.75 1009.18,0 0,-382.8 -1464.46,0 0,2070.55 455.28,0" /><path
             id="path190"
             style="fill:none;stroke:#ffffff;stroke-width:80;stroke-linecap:butt;stroke-linejoin:miter;stroke-miterlimit:10;stroke-dasharray:none;stroke-opacity:1"
             d="m 1690.22,6925.23 0,-1687.75 1009.18,0 0,-382.8 -1464.46,0 0,2070.55 455.28,0 z" /><path
             id="path192"
             style="fill:#ffffff;fill-opacity:1;fill-rule:nonzero;stroke:none"
             d="m 4073.93,6372.79 c -27.1,43.5 -60.9,81.65 -101.5,114.55 -40.6,32.85 -86.54,58.45 -137.74,76.85 -51.25,18.35 -104.9,27.55 -160.95,27.55 -102.5,0 -189.49,-19.85 -261,-59.45 -71.54,-39.65 -129.54,-92.8 -173.99,-159.5 -44.5,-66.7 -76.85,-142.59 -97.15,-227.64 -20.3,-85.1 -30.45,-173.04 -30.45,-263.89 0,-87 10.15,-171.6 30.45,-253.74 20.3,-82.2 52.65,-156.15 97.15,-221.85 44.45,-65.75 102.45,-118.45 173.99,-158.05 71.51,-39.65 158.5,-59.44 261,-59.44 139.19,0 247.94,42.5 326.24,127.59 78.3,85.05 126.15,197.19 143.55,336.39 l 440.79,0 c -11.61,-129.55 -41.6,-246.49 -89.9,-350.88 -48.35,-104.41 -112.15,-193.35 -191.4,-266.8 -79.29,-73.5 -172.09,-129.54 -278.39,-168.2 -106.34,-38.65 -223.29,-57.99 -350.89,-57.99 -158.54,0 -301.14,27.55 -427.74,82.64 -126.64,55.1 -233.44,130.95 -320.44,227.65 -87,96.65 -153.7,210.24 -200.1,340.74 -46.39,130.49 -69.6,271.14 -69.6,421.94 0,154.64 23.21,298.19 69.6,430.64 46.4,132.39 113.1,247.94 200.1,346.54 87,98.59 193.8,175.9 320.44,231.99 126.6,56.05 269.2,84.1 427.74,84.1 114.05,0 221.85,-16.45 323.34,-49.3 101.5,-32.9 192.35,-80.75 272.59,-143.54 80.2,-62.86 146.45,-140.65 198.65,-233.45 52.2,-92.8 85.05,-199.14 98.59,-318.99 l -440.78,0 c -7.75,52.2 -25.15,100.04 -52.2,143.54" /><path
             id="path194"
             style="fill:none;stroke:#ffffff;stroke-width:80;stroke-linecap:butt;stroke-linejoin:miter;stroke-miterlimit:10;stroke-dasharray:none;stroke-opacity:1"
             d="m 4073.93,6372.79 c -27.1,43.5 -60.9,81.65 -101.5,114.55 -40.6,32.85 -86.54,58.45 -137.74,76.85 -51.25,18.35 -104.9,27.55 -160.95,27.55 -102.5,0 -189.49,-19.85 -261,-59.45 -71.54,-39.65 -129.54,-92.8 -173.99,-159.5 -44.5,-66.7 -76.85,-142.59 -97.15,-227.64 -20.3,-85.1 -30.45,-173.04 -30.45,-263.89 0,-87 10.15,-171.6 30.45,-253.74 20.3,-82.2 52.65,-156.15 97.15,-221.85 44.45,-65.75 102.45,-118.45 173.99,-158.05 71.51,-39.65 158.5,-59.44 261,-59.44 139.19,0 247.94,42.5 326.24,127.59 78.3,85.05 126.15,197.19 143.55,336.39 l 440.79,0 c -11.61,-129.55 -41.6,-246.49 -89.9,-350.88 -48.35,-104.41 -112.15,-193.35 -191.4,-266.8 -79.29,-73.5 -172.09,-129.54 -278.39,-168.2 -106.34,-38.65 -223.29,-57.99 -350.89,-57.99 -158.54,0 -301.14,27.55 -427.74,82.64 -126.64,55.1 -233.44,130.95 -320.44,227.65 -87,96.65 -153.7,210.24 -200.1,340.74 -46.39,130.49 -69.6,271.14 -69.6,421.94 0,154.64 23.21,298.19 69.6,430.64 46.4,132.39 113.1,247.94 200.1,346.54 87,98.59 193.8,175.9 320.44,231.99 126.6,56.05 269.2,84.1 427.74,84.1 114.05,0 221.85,-16.45 323.34,-49.3 101.5,-32.9 192.35,-80.75 272.59,-143.54 80.2,-62.86 146.45,-140.65 198.65,-233.45 52.2,-92.8 85.05,-199.14 98.59,-318.99 l -440.78,0 c -7.75,52.2 -25.15,100.04 -52.2,143.54 z" /><path
             id="path196"
             style="fill:#ffffff;fill-opacity:1;fill-rule:nonzero;stroke:none"
             d="m 5138.2,6925.23 864.17,-1389.06 5.8,0 0,1389.06 426.29,0 0,-2070.55 -455.29,0 -861.27,1386.17 -5.81,0 0,-1386.17 -426.28,0 0,2070.55 452.39,0" /><path
             id="path198"
             style="fill:none;stroke:#ffffff;stroke-width:80;stroke-linecap:butt;stroke-linejoin:miter;stroke-miterlimit:10;stroke-dasharray:none;stroke-opacity:1"
             d="m 5138.2,6925.23 864.17,-1389.06 5.8,0 0,1389.06 426.29,0 0,-2070.55 -455.29,0 -861.27,1386.17 -5.81,0 0,-1386.17 -426.28,0 0,2070.55 452.39,0 z" /><path
             id="path200"
             style="fill:#ffffff;fill-opacity:1;fill-rule:nonzero;stroke:none"
             d="m 8891.01,6925.23 484.28,-1423.87 5.8,0 458.2,1423.87 640.91,0 0,-2070.55 -426.3,0 0,1467.37 -5.8,0 -507.51,-1467.37 -350.89,0 -507.48,1452.86 -5.8,0 0,-1452.86 -426.29,0 0,2070.55 640.88,0" /><path
             id="path202"
             style="fill:none;stroke:#ffffff;stroke-width:80;stroke-linecap:butt;stroke-linejoin:miter;stroke-miterlimit:10;stroke-dasharray:none;stroke-opacity:1"
             d="m 8891.01,6925.23 484.28,-1423.87 5.8,0 458.2,1423.87 640.91,0 0,-2070.55 -426.3,0 0,1467.37 -5.8,0 -507.51,-1467.37 -350.89,0 -507.48,1452.86 -5.8,0 0,-1452.86 -426.29,0 0,2070.55 640.88,0 z" /><path
             id="path204"
             style="fill:#ffffff;fill-opacity:1;fill-rule:nonzero;stroke:none"
             d="m 8113.84,6925.23 0,-382.79 -1093.27,0 0,-443.69 1003.37,0 0,-353.79 -1003.37,0 0,-507.48 1116.47,0 0,-382.8 -1571.76,0 0,2070.55 1548.56,0" /><path
             id="path206"
             style="fill:none;stroke:#ffffff;stroke-width:80;stroke-linecap:butt;stroke-linejoin:miter;stroke-miterlimit:10;stroke-dasharray:none;stroke-opacity:1"
             d="m 8113.84,6925.23 0,-382.79 -1093.27,0 0,-443.69 1003.37,0 0,-353.79 -1003.37,0 0,-507.48 1116.47,0 0,-382.8 -1571.76,0 0,2070.55 1548.56,0 z" /></g></g></g></g></svg>