<svg id="レイヤー_1" data-name="レイヤー 1" xmlns="http://www.w3.org/2000/svg" viewBox="0 0 600 600"><defs><style>.cls-1{fill:#0071bc;}.cls-2{fill:#2e3192;}.cls-3{fill:#29abe2;}</style></defs><title>アートボード 1</title><path class="cls-1" d="M366.22,447.89a162.44435,162.44435,0,0,1-132.43994,0q-7.23-3.24-14.06006-7.15a162.62635,162.62635,0,0,1-46.59-40q-4.95-6.21-9.28-12.91a162.08428,162.08428,0,0,1,79.86-239.78q5.715.165,11.3.79,4.155.48,8.25,1.2a130.98163,130.98163,0,0,1,29.99,9.15c2.02.88,4.01,1.83,5.98,2.81q-5.93994.02994-11.74.56a136.97335,136.97335,0,0,0-54.36,16.7,135.38066,135.38066,0,0,0-13.67,8.67,138.02329,138.02329,0,0,0-2.9,222q5.265,4.005,10.93,7.51a137.65379,137.65379,0,0,0,69.82,20.53c.89.02,1.79.03,2.69.03s1.8-.01,2.69-.03A167.64394,167.64394,0,0,0,360,448C362.08,448,364.16,447.96,366.22,447.89Z"/><path class="cls-1" d="M462,300a161.21313,161.21313,0,0,1-25.85,87.83,131.36256,131.36256,0,0,1-52.7,22.1,138.03082,138.03082,0,0,0-2.91-222,168.7913,168.7913,0,0,0-35.55-39.09q-3.31494-2.65494-6.76-5.13c-.8-.59-1.62-1.17-2.43-1.74q2.7.6,5.37,1.31a157.15743,157.15743,0,0,1,15.12,4.77A162.05594,162.05594,0,0,1,462,300Z"/><path class="cls-2" d="M287.05,431.37A131.04954,131.04954,0,0,1,240.77,418a138.48164,138.48164,0,0,0,21-1.71A166.6,166.6,0,0,0,287.05,431.37Z"/><path class="cls-2" d="M402,280a161.77136,161.77136,0,0,1-65.26,129.96,130.98151,130.98151,0,0,1-29.99-9.15,138.0371,138.0371,0,0,0,16.69-230.74q-5.265-4.00508-10.93-7.51-2.835-1.755-5.76-3.37h-.01c-2.21-1.23-4.45-2.4-6.74-3.5a137.01018,137.01018,0,0,0-29.99-10.42q-4.08-.9-8.24-1.56c-.98-.16-1.96-.3-2.94-.43a136.1891,136.1891,0,0,0-16.14-1.25c-.89-.02-1.79-.03-2.69-.03a138.007,138.007,0,0,0-80.54,250.07,169.0012,169.0012,0,0,0,44.74,45.96,162.03385,162.03385,0,1,1,87.56-311.59q4.17,1.41,8.24,3.04,3.15,1.245,6.22,2.63,7.23,3.24,14.06006,7.15,4.965,2.83492,9.71,6.01c2.29,1.53,4.54,3.13,6.75,4.77a162.86236,162.86236,0,0,1,30.13,29.22q4.95,6.20992,9.28,12.91A161.21333,161.21333,0,0,1,402,280Z"/><path class="cls-3" d="M522,280A162.05827,162.05827,0,0,1,395.8,438.03q-7.635,1.725-15.52,2.71a163.37175,163.37175,0,0,1-61.45-4.02q-5.37-1.395-10.59-3.16c-1.52-.52-3.03-1.05-4.53-1.61-1.25-.46-2.48-.93-3.71-1.43a160.8276,160.8276,0,0,1-29.99-15.79c-2.29-1.53-4.54-3.13-6.75-4.77a162.07,162.07,0,0,1-39.41-217.79,131.46551,131.46551,0,0,1,52.71-22.1,138.0371,138.0371,0,0,0,16.69,230.74q3.315,1.845,6.75,3.5a137.01,137.01,0,0,0,29.99,10.42q4.08.9,8.24,1.56a138.48164,138.48164,0,0,0,21,1.71H360q6.33,0,12.51-.56a136.97431,136.97431,0,0,0,54.36-16.7,135.39127,135.39127,0,0,0,13.67-8.67A138.007,138.007,0,0,0,360,142c-.9,0-1.8.01-2.69.03a166.581,166.581,0,0,0-35.1-8.57q-6.795-3.825-13.97-7.02A162.13105,162.13105,0,0,1,522,280Z"/></svg>